<?xml version="1.0" encoding="utf-8"?>
<!-- Generator: Adobe Illustrator 19.0.0, SVG Export Plug-In . SVG Version: 6.00 Build 0)  -->
<svg version="1.1" id="图层_1" xmlns="http://www.w3.org/2000/svg" xmlns:xlink="http://www.w3.org/1999/xlink" x="0px" y="0px"
	 viewBox="0 0 481 347" style="enable-background:new 0 0 481 347;" xml:space="preserve">
<style type="text/css">
	.st0{fill:#C5C6C6;}
</style>
<g id="XMLID_249_">
	<g id="XMLID_288_">
		<g id="XMLID_24_">
			<path id="XMLID_28_" class="st0" d="M190.1,3.6c-15.3,7-30.4,14.4-45.4,22c-11.5,5.9-22.9,11.9-34.1,18.4
				c-8,4.6-16.5,9.4-23.2,15.8c-3.3,3.1-5.8,6.8-9.4,9.7c-4.1,3.4-8.7,6.1-12.9,9.4c-12.5,9.8-19,23.1-24.6,37.6
				c-7,17.9-16.8,34.6-25.8,51.6c-3.7,7-7.3,14-10,21.4c-1.6,4.6-3.3,9.8-2.4,14.7c0.7,4.3,4,8.1,6.5,11.5c4.5,6,9.7,11.5,15,16.8
				c12.8,12.6,27.3,23.8,43.1,32.3c13.1,7,27.3,11.6,40.7,18c14.7,7,29.2,14.5,43.6,22.2c14,7.4,28,15,42,22.4
				c9.3,4.9,18.7,10.5,28.6,14.1c9.4,3.4,20.6,2,30.3,0.8c15.6-2,31-5.5,46.2-9.3c36.8-9.1,73.7-19.6,109.8-31.4
				c23-7.6,47.6-16.8,67-31.7c0.8-0.6,1.6-1.2,2.3-1.9c1.3-1.2-1.5-1.5-2.4-0.7c-11.4,10.3-29.2,17.9-43.8,23.9
				c-18,7.4-36.6,12.7-55.3,18.2c-17.5,5.2-34.9,10.3-52.5,15.2c-16.6,4.6-33.4,8.9-50.3,12.4c-12.9,2.6-26.5,5.3-39.8,4.6
				c-9.3-0.5-17.1-4.9-25.2-9c-12.4-6.3-24.6-12.9-36.8-19.5c-26.2-14-52.5-28.7-80.1-40c-16.2-6.6-31.1-13.9-45.2-24.6
				c-12.8-9.7-25-21-34.7-33.8c-2.7-3.6-6.1-7.6-6.4-12.3c-0.4-5.8,2.1-11.9,4.3-17.1c6.8-16.1,16.2-31.1,24.1-46.7
				c4.2-8.2,7.9-16.6,11.2-25.2c3.2-8.4,7.1-16.6,12.8-23.6c7.1-8.7,16.8-13.6,25-21c3-2.7,5.2-6.2,8.3-8.9
				c3.1-2.8,6.6-5.1,10.1-7.4c10-6.6,20.6-12.3,31.2-17.9c18.4-9.7,37.1-18.9,56-27.7c1.1-0.5,2.2-1,3.4-1.6
				C193.1,4.4,191.5,3,190.1,3.6L190.1,3.6z"/>
		</g>
	</g>
	<g id="XMLID_274_">
		<g id="XMLID_18_">
			<path id="XMLID_22_" class="st0" d="M207.1,3.8c-13.9,12.4-27.6,25.2-41,38.2c-10.2,10-19.9,20.4-31.2,29.4
				c-6.2,4.9-14.3,9.4-18.7,16.1c-1.5,2.3-2.1,4.9-3,7.5c-1.5,4-3.2,7.9-4.9,11.8c-4.4,10.1-9.1,20.2-14.2,30
				c-4.6,9-10.1,17.2-15.6,25.7c-3.8,5.8-7.4,11.6-11.3,17.3c-1.2,1.8-2.4,3.6-3.7,5.3c-0.6,0.8-1.9,1.7-2.1,2.7
				c-1.2,5.7,17.1,7.6,20.1,8c11.6,1.7,23.3,1.1,35,1.6c23.9,0.9,49.6,2.9,71.8,12.7c12.2,5.4,23.7,13.2,35.4,19.8
				c6.4,3.6,12.6,7.1,18.4,11.7c14.8,11.8,31.6,22.2,48.8,30.1c20.7,9.6,44.8,9.9,67.3,8.8c12.1-0.6,24.4-2.2,35.7-6.6
				c13.6-5.3,27.2-10.5,41.1-15.1c2.4-0.8,4.8-1.6,7.3-2.4c1.8-0.6,1.2-2.6-0.5-2c-7.9,2.5-15.7,5.2-23.5,8
				c-12.9,4.6-25.6,10.9-39.1,13.6c-13.5,2.7-27.4,3-41.1,2.4c-10.8-0.4-22.5-0.6-32.9-3.8c-19.7-6.1-38.1-18.3-54.7-30.2
				c-4.7-3.4-9.2-7.2-14.1-10.3c-8.6-5.3-17.7-10-26.5-15.1c-10.7-6.1-20.7-12.1-32.5-15.5c-11.3-3.3-23.1-5.2-34.8-6.5
				c-10.6-1.2-21.3-1.8-31.9-2c-12.6-0.3-25.3-0.1-37.6-3.3c-2-0.5-4.2-1.1-6.1-2c-2.3-1.1-2.4-1.3-1.1-3.2
				c2.4-3.7,5.1-7.3,7.6-11.1c6.1-9.3,12.6-18.4,18.1-27.9c9.7-16.6,18.2-34.6,24.9-52.6c1-2.6,1.6-5.3,3.2-7.5
				c2.2-3,5.4-5.3,8.3-7.6c9.6-7.4,19.1-14.9,27.6-23.6c16.3-16.5,33.1-32.4,50.4-48c1.2-1.1,2.3-2.1,3.5-3.2
				C210.4,3.8,208.2,2.8,207.1,3.8L207.1,3.8z"/>
		</g>
	</g>
	<g id="XMLID_250_">
		<g id="XMLID_12_">
			<path id="XMLID_16_" class="st0" d="M3,204.4c0.4,1.9,8.4,1,9.7,0.8c3.1-0.3,5.9-1.5,8.9-2.1c4.3-0.9,8.5-2,12.7-3.3
				c9.9-3.2,21.2-6.1,29.9-12.3c1.3-0.9-1.6-0.9-2.3-0.4c-6.7,4.8-15,6.9-22.7,9.5c-6.9,2.4-13.7,4.1-20.8,5.8
				c-1,0.2-12.2,3.1-12.6,1.2C5.7,202.7,2.8,203.4,3,204.4L3,204.4z"/>
		</g>
	</g>
</g>
</svg>
